<?xml version="1.0" encoding="UTF-8" standalone="no"?>
<svg
   xmlns:dc="http://purl.org/dc/elements/1.1/"
   xmlns:cc="http://creativecommons.org/ns#"
   xmlns:rdf="http://www.w3.org/1999/02/22-rdf-syntax-ns#"
   xmlns:svg="http://www.w3.org/2000/svg"
   xmlns="http://www.w3.org/2000/svg"
   xmlns:sodipodi="http://sodipodi.sourceforge.net/DTD/sodipodi-0.dtd"
   xmlns:inkscape="http://www.inkscape.org/namespaces/inkscape"
   viewBox="0 0 520 160"
   height="160"
   width="520"
   xml:space="preserve"
   id="svg2"
   version="1.1"
   sodipodi:docname="Logo Instituto Nacional Electoral.svg"
   inkscape:version="1.0.1 (3bc2e813f5, 2020-09-07)"><sodipodi:namedview
     pagecolor="#ffffff"
     bordercolor="#666666"
     borderopacity="1"
     objecttolerance="10"
     gridtolerance="10"
     guidetolerance="10"
     inkscape:pageopacity="0"
     inkscape:pageshadow="2"
     inkscape:window-width="1366"
     inkscape:window-height="705"
     id="namedview123"
     showgrid="false"
     inkscape:zoom="0.90509668"
     inkscape:cx="233.22299"
     inkscape:cy="115.53105"
     inkscape:window-x="-8"
     inkscape:window-y="-8"
     inkscape:window-maximized="1"
     inkscape:current-layer="svg2" /><metadata
     id="metadata8"><rdf:RDF><cc:Work
         rdf:about=""><dc:format>image/svg+xml</dc:format><dc:type
           rdf:resource="http://purl.org/dc/dcmitype/StillImage" /><dc:title></dc:title></cc:Work></rdf:RDF></metadata><defs
     id="defs6" /><g
     id="g1215"
     transform="matrix(1,0,0,0.99955025,0,-0.00269671)"><path
       id="path178"
       style="fill:#231f20;fill-opacity:1;fill-rule:nonzero;stroke:none;stroke-width:0.133333"
       d="m 192.55866,118.28936 h 37.02267 V 26.682697 h -37.02267 v 91.606663" /><path
       id="path180"
       style="fill:#231f20;fill-opacity:1;fill-rule:nonzero;stroke:none;stroke-width:0.133333"
       d="m 348.24266,79.844029 -67.876,-53.161332 h -37.02133 v 91.606663 h 37.02133 V 66.078696 l 67.876,52.210664 h 37.02133 V 26.682697 h -37.02133 v 53.161332" /><path
       id="path182"
       style="fill:#231f20;fill-opacity:1;fill-rule:nonzero;stroke:none;stroke-width:0.133333"
       d="M 519.59199,43.769363 V 26.682697 H 399.50532 v 91.606663 h 37.02267 83.064 V 101.2027 h -83.064 V 81.028029 h 83.064 V 63.941363 h -83.064 v -20.172 h 83.064" /><path
       id="path184"
       style="opacity:1;fill:#d4098d;fill-opacity:1;fill-rule:nonzero;stroke:none;stroke-width:0.133333"
       d="m 28.083333,64.32403 c 0,0 26.363599,34.742665 61.311465,55.18 0,0 58.041202,-52.930667 67.033202,-54.157334 0,0 -47.364,-31.010666 -62.697336,-65.34399808 0,0 -40.627999,26.64266608 -65.647331,64.32133208" /><path
       id="path190"
       style="fill:#231f20;fill-opacity:1;fill-rule:nonzero;stroke:none;stroke-width:0.133333"
       d="m 6.1197865,132.67603 v 26.95866 H 0 v -26.95866 h 6.1197865" /><path
       id="path192"
       style="fill:#231f20;fill-opacity:1;fill-rule:nonzero;stroke:none;stroke-width:0.133333"
       d="m 12.320306,146.31469 c 0,-2.44 -0.08072,-4.52 -0.159893,-6.23866 h 5.27972 l 0.2796,2.67866 h 0.1204 c 0.799467,-1.24 2.799466,-3.11866 6.040133,-3.11866 3.998933,0 6.998933,2.63866 6.998933,8.39866 v 11.6 h -6.079733 v -10.84 c 0,-2.52 -0.880133,-4.24 -3.079733,-4.24 -1.679067,0 -2.679067,1.16 -3.080133,2.28 -0.158934,0.36 -0.240134,0.96 -0.240134,1.52 v 11.28 h -6.07916 v -13.32" /><path
       id="path194"
       style="fill:#231f20;fill-opacity:1;fill-rule:nonzero;stroke:none;stroke-width:0.133333"
       d="m 36.719732,154.31336 c 1.1204,0.68133 3.440134,1.48133 5.2396,1.48133 1.840134,0 2.600534,-0.64 2.600534,-1.64 0,-1 -0.600534,-1.48 -2.880134,-2.24 -4.039066,-1.36 -5.599066,-3.56 -5.56,-5.88 0,-3.64 3.119867,-6.39866 7.96,-6.39866 2.2796,0 4.319733,0.51866 5.5208,1.11866 l -1.0812,4.2 c -0.879733,-0.48 -2.56,-1.12 -4.239066,-1.12 -1.4808,0 -2.320934,0.6 -2.320934,1.6 0,0.92 0.7604,1.4 3.1604,2.24 3.7204,1.28 5.279733,3.16 5.3204,6.04 0,3.64 -2.880267,6.31867 -8.4808,6.31867 -2.559866,0 -4.8396,-0.55867 -6.318666,-1.35867 l 1.079066,-4.36133" /><path
       id="path196"
       style="fill:#231f20;fill-opacity:1;fill-rule:nonzero;stroke:none;stroke-width:0.133333"
       d="m 61.919332,134.47469 v 5.60134 h 4.359333 v 4.47866 h -4.359333 v 7.08 c 0,2.36 0.559866,3.44 2.4,3.44 0.7604,0 1.3604,-0.08 1.8004,-0.16 l 0.03907,4.6 c -0.799466,0.32 -2.239466,0.51867 -3.959866,0.51867 -1.959334,0 -3.6,-0.67867 -4.559333,-1.67867 -1.120267,-1.16 -1.680267,-3.04133 -1.680267,-5.8 v -8 h -2.6 v -4.47866 h 2.6 v -4.24134 l 5.96,-1.36" /><path
       id="path198"
       style="fill:#231f20;fill-opacity:1;fill-rule:nonzero;stroke:none;stroke-width:0.133333"
       d="m 70.799465,159.63469 v -19.55866 h 6.079733 v 19.55866 h -6.079733" /><path
       id="path200"
       style="fill:#231f20;fill-opacity:1;fill-rule:nonzero;stroke:none;stroke-width:0.133333"
       d="m 89.558398,134.47469 v 5.60134 h 4.359866 v 4.47866 h -4.359866 v 7.08 c 0,2.36 0.5604,3.44 2.4,3.44 0.7604,0 1.360933,-0.08 1.799466,-0.16 l 0.04,4.6 c -0.799466,0.32 -2.239466,0.51867 -3.959333,0.51867 -1.959333,0 -3.600533,-0.67867 -4.559866,-1.67867 -1.119867,-1.16 -1.679734,-3.04133 -1.679734,-5.8 v -8 h -2.600533 v -4.47866 h 2.600533 v -4.24134 l 5.959467,-1.36" /><path
       id="path202"
       style="fill:#231f20;fill-opacity:1;fill-rule:nonzero;stroke:none;stroke-width:0.133333"
       d="m 116.876,153.35469 c 0,2.56 0.0813,4.64 0.1604,6.28 h -5.2796 l -0.28027,-2.76133 h -0.11973 c -0.7604,1.20133 -2.6,3.20133 -6.11987,3.20133 -3.95987,0 -6.880132,-2.48133 -6.880132,-8.52 v -11.47866 h 6.119732 v 10.51866 c 0,2.84 0.9208,4.56 3.04067,4.56 1.67973,0 2.63906,-1.16 3.04013,-2.12133 0.1588,-0.35867 0.19947,-0.83867 0.19947,-1.31867 v -11.63866 h 6.1192 v 13.27866" /><path
       id="path204"
       style="fill:#231f20;fill-opacity:1;fill-rule:nonzero;stroke:none;stroke-width:0.133333"
       d="m 129.55733,134.47469 v 5.60134 h 4.36 v 4.47866 h -4.36 v 7.08 c 0,2.36 0.55987,3.44 2.4,3.44 0.7604,0 1.3604,-0.08 1.8,-0.16 l 0.04,4.6 c -0.8,0.32 -2.24,0.51867 -3.9604,0.51867 -1.95933,0 -3.6,-0.67867 -4.55987,-1.67867 -1.1192,-1.16 -1.67973,-3.04133 -1.67973,-5.8 v -8 h -2.6 v -4.47866 h 2.6 v -4.24134 l 5.96,-1.36" /><path
       id="path206"
       style="fill:#231f20;fill-opacity:1;fill-rule:nonzero;stroke:none;stroke-width:0.133333"
       d="m 143.39866,149.83469 c 0,3.36 1.4,5.88 3.99867,5.88 2.36,0 3.88,-2.36 3.88,-5.88 0,-2.92 -1.12,-5.88 -3.88,-5.88 -2.92,0 -3.99867,3 -3.99867,5.88 z m 14.15867,-0.2 c 0,7.16 -5.08,10.44 -10.31867,10.44 -5.72,0 -10.12,-3.76133 -10.12,-10.08 0,-6.32 4.15867,-10.35866 10.43867,-10.35866 6,0 10,4.11866 10,9.99866" /><path
       id="path208"
       style="fill:#231f20;fill-opacity:1;fill-rule:nonzero;stroke:none;stroke-width:0.133333"
       d="m 171.596,159.63469 v -26.95866 h 7.12 l 5.6,9.87866 c 1.60133,2.84 3.2,6.19867 4.4,9.24 h 0.12 c -0.4,-3.56 -0.52,-7.2 -0.52,-11.24 v -7.87866 h 5.60133 v 26.95866 H 187.516 l -5.76,-10.4 c -1.6,-2.88 -3.35867,-6.36 -4.67867,-9.52 l -0.12,0.04 c 0.16,3.56 0.23867,7.36 0.23867,11.76 v 8.12 h -5.6" /><path
       id="path210"
       style="fill:#231f20;fill-opacity:1;fill-rule:nonzero;stroke:none;stroke-width:0.133333"
       d="m 211.15599,150.39469 c -3.2,-0.04 -5.68,0.72 -5.68,3.08 0,1.55867 1.04,2.32 2.4,2.32 1.52,0 2.76,-1 3.16,-2.24 0.08,-0.32 0.12,-0.68 0.12,-1.04 z m 0.72,9.24 -0.36,-1.96 h -0.12 c -1.28,1.56 -3.28,2.4 -5.6,2.4 -3.96,0 -6.31999,-2.88 -6.31999,-6 0,-5.08 4.55999,-7.52 11.47999,-7.48 v -0.28 c 0,-1.04 -0.56,-2.52 -3.56,-2.52 -2,0 -4.12,0.68 -5.4,1.48 l -1.12,-3.91866 c 1.36,-0.76134 4.04134,-1.72 7.6,-1.72 6.52,0 8.6,3.83866 8.6,8.43866 v 6.79867 c 0,1.88 0.08,3.68133 0.28,4.76133 h -5.48" /><path
       id="path212"
       style="fill:#231f20;fill-opacity:1;fill-rule:nonzero;stroke:none;stroke-width:0.133333"
       d="m 238.31599,159.15336 c -1.08,0.48133 -3.12,0.88 -5.44,0.88 -6.32,0 -10.35866,-3.83867 -10.35866,-9.99867 0,-5.72 3.91866,-10.39866 11.19866,-10.39866 1.6,0 3.36,0.28 4.64,0.75866 l -0.96,4.52134 c -0.72,-0.32134 -1.8,-0.60134 -3.4,-0.60134 -3.19866,0 -5.28,2.28 -5.24,5.48 0,3.6 2.4,5.48 5.36,5.48 1.44,0 2.56,-0.24133 3.48,-0.6 l 0.72,4.47867" /><path
       id="path214"
       style="fill:#231f20;fill-opacity:1;fill-rule:nonzero;stroke:none;stroke-width:0.133333"
       d="m 243.43599,159.63469 v -19.55866 h 6.08 v 19.55866 h -6.08" /><path
       id="path216"
       style="fill:#231f20;fill-opacity:1;fill-rule:nonzero;stroke:none;stroke-width:0.133333"
       d="m 261.31599,149.83469 c 0,3.36 1.4,5.88 3.99867,5.88 2.36133,0 3.88,-2.36 3.88,-5.88 0,-2.92 -1.11867,-5.88 -3.88,-5.88 -2.91867,0 -3.99867,3 -3.99867,5.88 z m 14.15867,-0.2 c 0,7.16 -5.07867,10.44 -10.31867,10.44 -5.72,0 -10.12,-3.76133 -10.12,-10.08 0,-6.32 4.15867,-10.35866 10.43867,-10.35866 6,0 10,4.11866 10,9.99866" /><path
       id="path218"
       style="fill:#231f20;fill-opacity:1;fill-rule:nonzero;stroke:none;stroke-width:0.133333"
       d="m 280.99599,146.31469 c 0,-2.44 -0.08,-4.52 -0.16,-6.23866 h 5.28 l 0.28,2.67866 h 0.12 c 0.79867,-1.24 2.79867,-3.11866 6.04,-3.11866 3.99867,0 6.99867,2.63866 6.99867,8.39866 v 11.6 h -6.08 v -10.84 c 0,-2.52 -0.88,-4.24 -3.07867,-4.24 -1.68,0 -2.68,1.16 -3.08133,2.28 -0.15867,0.36 -0.23867,0.96 -0.23867,1.52 v 11.28 h -6.08 v -13.32" /><path
       id="path220"
       style="fill:#231f20;fill-opacity:1;fill-rule:nonzero;stroke:none;stroke-width:0.133333"
       d="m 316.59466,150.39469 c -3.2,-0.04 -5.67867,0.72 -5.67867,3.08 0,1.55867 1.03867,2.32 2.39867,2.32 1.52,0 2.76,-1 3.16,-2.24 0.08,-0.32 0.12,-0.68 0.12,-1.04 z m 0.72,9.24 -0.36,-1.96 h -0.12 c -1.28,1.56 -3.28,2.4 -5.6,2.4 -3.96,0 -6.31867,-2.88 -6.31867,-6 0,-5.08 4.55867,-7.52 11.47867,-7.48 v -0.28 c 0,-1.04 -0.56,-2.52 -3.56,-2.52 -2,0 -4.12,0.68 -5.4,1.48 l -1.12,-3.91866 c 1.36,-0.76134 4.04133,-1.72 7.60133,-1.72 6.51867,0 8.59867,3.83866 8.59867,8.43866 v 6.79867 c 0,1.88 0.08,3.68133 0.28,4.76133 h -5.48" /><path
       id="path222"
       style="fill:#231f20;fill-opacity:1;fill-rule:nonzero;stroke:none;stroke-width:0.133333"
       d="m 329.07599,131.23603 h 6.07867 v 28.39866 h -6.07867 v -28.39866" /><path
       id="path224"
       style="fill:#231f20;fill-opacity:1;fill-rule:nonzero;stroke:none;stroke-width:0.133333"
       d="m 367.91599,148.23469 h -9.92133 v 6.4 h 11.08133 v 5 h -17.20133 v -26.95866 h 16.64 v 4.99866 h -10.52 v 5.6 h 9.92133 v 4.96" /><path
       id="path226"
       style="fill:#231f20;fill-opacity:1;fill-rule:nonzero;stroke:none;stroke-width:0.133333"
       d="m 375.15466,131.23603 h 6.08 v 28.39866 h -6.08 v -28.39866" /><path
       id="path228"
       style="fill:#231f20;fill-opacity:1;fill-rule:nonzero;stroke:none;stroke-width:0.133333"
       d="m 399.95466,147.63469 c 0,-1.48 -0.64134,-3.96 -3.44,-3.96 -2.56,0 -3.6,2.32 -3.76134,3.96 z m -7.16,4.16 c 0.2,2.51867 2.67866,3.72 5.51866,3.72 2.08,0 3.76134,-0.28 5.4,-0.8 l 0.80134,4.12 c -2,0.8 -4.44,1.19867 -7.08134,1.19867 -6.63866,0 -10.43866,-3.83867 -10.43866,-9.95867 0,-4.96 3.08,-10.43866 9.87866,-10.43866 6.32134,0 8.72,4.91866 8.72,9.75866 0,1.04 -0.12,1.96 -0.2,2.4 h -12.59866" /><path
       id="path230"
       style="fill:#231f20;fill-opacity:1;fill-rule:nonzero;stroke:none;stroke-width:0.133333"
       d="m 425.87466,159.15336 c -1.08,0.48133 -3.12,0.88 -5.44,0.88 -6.32,0 -10.35867,-3.83867 -10.35867,-9.99867 0,-5.72 3.91867,-10.39866 11.19867,-10.39866 1.6,0 3.36,0.28 4.64,0.75866 l -0.96,4.52134 c -0.72,-0.32134 -1.8,-0.60134 -3.4,-0.60134 -3.2,0 -5.28,2.28 -5.24,5.48 0,3.6 2.4,5.48 5.36,5.48 1.44,0 2.56,-0.24133 3.48,-0.6 l 0.72,4.47867" /><path
       id="path232"
       style="fill:#231f20;fill-opacity:1;fill-rule:nonzero;stroke:none;stroke-width:0.133333"
       d="m 438.63466,134.47469 v 5.60134 h 4.35866 v 4.47866 h -4.35866 v 7.08 c 0,2.36 0.56,3.44 2.4,3.44 0.76133,0 1.36,-0.08 1.8,-0.16 l 0.0387,4.6 c -0.79866,0.32 -2.23866,0.51867 -3.95733,0.51867 -1.96133,0 -3.60267,-0.67867 -4.56,-1.67867 -1.12,-1.16 -1.68,-3.04133 -1.68,-5.8 v -8 h -2.60133 v -4.47866 h 2.60133 v -4.24134 l 5.95867,-1.36" /><path
       id="path234"
       style="fill:#231f20;fill-opacity:1;fill-rule:nonzero;stroke:none;stroke-width:0.133333"
       d="m 453.43332,149.83469 c 0,3.36 1.40134,5.88 4,5.88 2.36,0 3.88,-2.36 3.88,-5.88 0,-2.92 -1.11866,-5.88 -3.88,-5.88 -2.91866,0 -4,3 -4,5.88 z m 14.15867,-0.2 c 0,7.16 -5.07733,10.44 -10.31733,10.44 -5.72134,0 -10.12,-3.76133 -10.12,-10.08 0,-6.32 4.15866,-10.35866 10.43733,-10.35866 6,0 10,4.11866 10,9.99866" /><path
       id="path236"
       style="fill:#231f20;fill-opacity:1;fill-rule:nonzero;stroke:none;stroke-width:0.133333"
       d="m 473.31332,146.51469 c 0,-2.88 -0.08,-4.76 -0.15867,-6.43866 h 5.24 l 0.2,3.59866 h 0.15867 c 1,-2.84 3.40133,-4.03866 5.27867,-4.03866 0.56266,0 0.84133,0 1.28133,0.0787 v 5.72 c -0.44,-0.08 -0.96,-0.16 -1.64,-0.16 -2.24,0 -3.76,1.2 -4.15867,3.08 -0.0813,0.39867 -0.12,0.88 -0.12,1.36 v 9.92 h -6.08133 v -13.12" /><path
       id="path238"
       style="fill:#231f20;fill-opacity:1;fill-rule:nonzero;stroke:none;stroke-width:0.133333"
       d="m 500.43332,150.39469 c -3.2,-0.04 -5.68,0.72 -5.68,3.08 0,1.55867 1.04,2.32 2.40133,2.32 1.51867,0 2.75867,-1 3.15867,-2.24 0.0813,-0.32 0.12,-0.68 0.12,-1.04 z m 0.72133,9.24 -0.36133,-1.96 h -0.12 c -1.27867,1.56 -3.27867,2.4 -5.59867,2.4 -3.96133,0 -6.32133,-2.88 -6.32133,-6 0,-5.08 4.56,-7.52 11.48,-7.48 v -0.28 c 0,-1.04 -0.56,-2.52 -3.56,-2.52 -2,0 -4.12,0.68 -5.39867,1.48 l -1.12,-3.91866 c 1.36,-0.76134 4.04,-1.72 7.59867,-1.72 6.52133,0 8.6,3.83866 8.6,8.43866 v 6.79867 c 0,1.88 0.08,3.68133 0.28133,4.76133 h -5.48" /><path
       id="path240"
       style="fill:#231f20;fill-opacity:1;fill-rule:nonzero;stroke:none;stroke-width:0.133333"
       d="m 513.11599,131.23603 h 6.07866 v 28.39866 h -6.07866 v -28.39866" /><path
       id="path242"
       style="fill:#231f20;fill-opacity:1;fill-rule:nonzero;stroke:none;stroke-width:0.133333"
       d="m 76.879198,138.47203 h -6.079733 v -3.99734 h 6.079733 v 3.99734" /><path
       id="path244"
       style="fill:#231f20;fill-opacity:1;fill-rule:nonzero;stroke:none;stroke-width:0.133333"
       d="m 249.51599,138.47203 h -6.08 v -3.99734 h 6.08 v 3.99734" /><path
       id="path186"
       style="fill:#231f20;fill-opacity:1;fill-rule:nonzero;stroke:none;stroke-width:0.133333"
       d="M 24.494141,87.630859 1.1074219,96.697266 H 17.767578 57.957031 l 0.05078,0.05469 57.103519,-0.05469 h 44.95898 16.66016 l -23.38672,-9.066407 h -27.61328 c -1.02133,0.857333 -2.04441,1.721844 -3.06641,2.589844 h 30.67969 l 5.7207,2.869141 H 119.29883 54.667969 18.775391 l 5.71875,-2.869141 h 27.15039 c -0.9068,-0.873333 -1.787857,-1.736511 -2.65039,-2.589844 z" /></g></svg>
