<?xml version="1.0" standalone="no"?>
<!DOCTYPE svg PUBLIC "-//W3C//DTD SVG 20010904//EN"
 "http://www.w3.org/TR/2001/REC-SVG-20010904/DTD/svg10.dtd">
<svg version="1.0" xmlns="http://www.w3.org/2000/svg"
 width="500.000000pt" height="500.000000pt" viewBox="0 0 500.000000 500.000000"
 preserveAspectRatio="xMidYMid meet">
<metadata>
Created by potrace 1.14, written by Peter Selinger 2001-2017
</metadata>
<g transform="translate(0.000000,500.000000) scale(0.100000,-0.100000)"
fill="#000000" stroke="none">
<path d="M818 4905 c-2 -2 -37 -5 -78 -6 -41 -1 -79 -5 -85 -8 -5 -3 -19 -7
-30 -8 -39 -6 -121 -35 -178 -64 -60 -30 -71 -38 -113 -76 -13 -12 -24 -19
-24 -16 0 8 -66 -64 -98 -107 -15 -19 -29 -37 -32 -40 -9 -8 -64 -105 -61
-108 1 -1 -5 -15 -13 -30 -23 -44 -45 -109 -39 -116 4 -3 2 -6 -3 -6 -11 0
-13 -14 -18 -160 -4 -102 -2 -135 19 -228 8 -32 35 -101 57 -140 10 -18 18
-39 18 -47 0 -8 5 -15 10 -15 6 0 13 -8 17 -17 16 -45 179 -217 195 -207 4 3
8 1 8 -4 0 -12 69 -55 88 -55 6 0 12 -4 12 -8 0 -11 146 -56 215 -65 37 -5
240 -5 265 0 99 21 135 33 215 71 86 42 211 136 198 149 -4 3 1 6 11 6 9 0 14
5 11 10 -3 6 -2 10 4 10 11 0 107 141 103 153 -1 4 3 7 8 7 6 0 10 5 10 10 0
6 9 29 19 53 19 42 28 69 36 104 2 10 7 36 12 58 17 75 5 293 -19 338 -5 10
-12 30 -14 44 -14 76 -106 218 -205 314 -54 54 -165 132 -189 134 -3 0 -16 7
-30 15 -14 7 -25 12 -25 11 0 -2 -20 3 -45 10 -65 18 -69 19 -140 25 -36 3
-70 7 -77 9 -6 2 -13 2 -15 0z"/>
<path d="M2528 4905 c-2 -2 -39 -5 -83 -8 -44 -3 -101 -12 -127 -20 -26 -8
-49 -12 -52 -9 -4 3 -6 0 -6 -7 0 -7 -4 -9 -10 -6 -5 3 -10 2 -10 -2 0 -5 -8
-9 -18 -10 -10 -1 -42 -15 -71 -32 -28 -17 -54 -31 -57 -31 -15 0 -162 -149
-170 -172 -3 -10 -9 -18 -14 -18 -23 0 -102 -169 -137 -295 -9 -32 -12 -295
-3 -295 4 0 6 -11 5 -25 -2 -14 1 -27 6 -31 5 -3 9 -13 9 -23 0 -23 60 -161
77 -179 7 -7 13 -17 13 -21 0 -21 124 -160 182 -206 80 -62 272 -146 298 -130
5 3 11 1 14 -4 9 -13 228 -17 301 -5 73 12 211 57 225 74 3 3 22 14 43 23 20
10 37 21 37 25 1 4 23 23 50 42 28 19 50 38 50 41 0 3 12 19 28 36 29 31 49
57 70 89 20 30 79 151 85 174 3 11 6 23 7 25 0 3 8 28 17 57 22 72 21 273 -1
348 -9 30 -18 64 -21 75 -9 39 -86 186 -100 192 -8 3 -13 9 -10 13 3 4 -15 29
-40 55 -25 25 -45 49 -45 53 0 4 -16 17 -35 30 -19 12 -35 27 -35 32 0 6 -4
10 -9 10 -5 0 -35 16 -67 35 -83 50 -188 82 -299 91 -33 3 -68 7 -77 8 -9 2
-18 3 -20 1z"/>
<path d="M4177 4903 c-1 -1 -29 -3 -62 -4 -107 -5 -231 -43 -326 -99 -70 -41
-196 -154 -191 -170 1 -6 -2 -10 -7 -10 -11 0 -94 -130 -94 -147 0 -7 -4 -13
-8 -13 -3 0 -10 -10 -14 -22 -4 -13 -8 -25 -10 -28 -55 -126 -64 -349 -19
-490 8 -25 13 -48 11 -51 -1 -3 4 -13 12 -22 7 -10 10 -17 5 -17 -5 0 -4 -4 1
-8 6 -4 21 -29 35 -57 26 -52 41 -73 76 -111 12 -13 20 -25 18 -27 -9 -8 163
-157 181 -157 3 0 23 -11 45 -25 22 -14 40 -23 40 -21 0 3 16 -2 35 -10 73
-30 168 -45 284 -44 64 0 127 3 141 5 54 8 175 47 182 58 4 7 8 8 8 4 0 -9 81
35 130 71 87 64 193 196 235 292 11 25 22 47 25 50 5 5 10 21 14 45 1 6 4 15
8 20 6 10 12 39 24 105 10 60 5 213 -10 280 -9 45 -20 76 -29 88 -5 7 -11 20
-12 30 -4 31 -17 62 -26 62 -5 0 -8 4 -7 8 3 10 -62 115 -74 120 -4 2 -8 10
-8 18 0 9 -4 12 -10 9 -5 -3 -10 -1 -10 5 0 20 -112 121 -173 156 -48 28 -142
70 -142 64 0 -1 -12 3 -28 9 -31 12 -63 19 -122 27 -40 6 -125 10 -128 7z"/>
<path d="M816 3283 c-1 -1 -31 -4 -66 -8 -86 -7 -240 -50 -240 -67 0 -4 -9 -8
-20 -8 -11 0 -20 -4 -20 -10 0 -5 -5 -10 -10 -10 -15 0 -131 -86 -124 -93 3
-3 -4 -8 -15 -12 -12 -3 -21 -9 -21 -13 0 -4 -14 -23 -30 -42 -16 -19 -34 -40
-39 -46 -26 -32 -91 -160 -109 -215 -33 -104 -41 -158 -38 -269 3 -91 12 -151
34 -210 3 -8 6 -22 8 -31 6 -28 85 -171 110 -198 13 -14 24 -28 24 -32 0 -13
81 -90 141 -134 91 -67 206 -114 319 -131 55 -8 258 -5 302 5 95 22 228 74
236 94 2 4 10 7 18 7 8 0 14 4 14 8 0 4 14 16 32 27 37 22 67 51 123 120 22
28 42 52 45 55 7 7 30 47 62 110 81 155 96 360 43 560 -2 8 -4 15 -5 15 -1 0
-3 9 -5 19 -5 24 -37 89 -48 97 -5 3 -8 8 -7 10 4 8 -24 59 -32 59 -4 0 -8 6
-8 14 0 8 -9 21 -20 29 -11 8 -17 17 -14 20 4 4 -1 9 -10 13 -9 3 -16 10 -16
15 0 9 -22 31 -97 96 -17 16 -49 37 -70 48 -21 11 -40 23 -43 26 -14 16 -145
57 -240 74 -33 6 -160 12 -164 8z"/>
<path d="M2537 3283 c-1 0 -31 -4 -67 -7 -97 -9 -268 -63 -278 -88 -2 -4 -9
-8 -14 -8 -21 0 -178 -128 -178 -145 0 -3 -8 -13 -17 -23 -32 -33 -53 -62 -53
-71 0 -5 -7 -14 -15 -21 -8 -7 -12 -16 -9 -21 3 -5 1 -9 -4 -9 -4 0 -18 -21
-29 -47 -57 -133 -74 -220 -69 -353 2 -58 6 -114 9 -126 31 -123 86 -244 147
-323 38 -49 180 -187 180 -175 0 3 12 -3 28 -14 37 -25 84 -46 167 -74 62 -20
89 -23 230 -23 145 0 213 6 237 21 5 3 19 7 32 10 20 3 80 30 157 69 10 5 19
13 19 17 0 5 7 8 15 8 9 0 18 7 21 15 4 8 12 15 19 15 8 0 17 9 20 21 4 11 9
18 12 15 6 -6 24 13 71 73 15 19 33 40 40 47 7 8 10 14 5 14 -4 0 -3 4 4 8 14
9 79 137 88 175 4 15 11 30 16 33 5 3 7 9 4 13 -2 5 0 23 6 42 15 52 20 205 8
278 -18 117 -81 272 -132 329 -10 10 -17 22 -17 26 0 11 -128 137 -170 168
-49 35 -125 73 -190 93 -56 17 -66 19 -135 30 -37 5 -155 12 -158 8z"/>
<path d="M4126 3283 c-1 -1 -22 -5 -47 -7 -65 -8 -94 -14 -163 -37 -76 -25
-74 -25 -111 -49 -16 -11 -37 -23 -45 -27 -34 -16 -190 -167 -190 -184 0 -4
-6 -14 -13 -21 -14 -14 -87 -143 -89 -155 0 -5 -5 -19 -10 -33 -49 -130 -54
-335 -12 -475 20 -65 90 -207 115 -233 10 -12 19 -24 19 -28 0 -3 30 -36 68
-74 64 -64 187 -150 215 -150 7 0 17 -4 23 -8 10 -10 73 -28 123 -37 19 -3 38
-8 42 -11 11 -7 238 -6 274 1 131 27 206 55 292 111 98 65 193 171 256 285 86
157 114 398 65 559 -17 57 -71 185 -80 188 -4 2 -8 8 -8 14 0 5 -8 20 -17 33
-10 12 -25 33 -33 45 -17 26 -128 140 -136 140 -2 0 -14 9 -26 20 -12 11 -28
20 -35 20 -7 0 -13 3 -13 8 0 8 -61 38 -72 34 -5 -1 -8 3 -8 8 0 6 -8 10 -18
10 -10 0 -23 5 -30 12 -7 7 -12 9 -12 6 0 -3 -21 0 -47 8 -58 18 -266 38 -277
27z"/>
<path d="M728 1654 c-2 -2 -20 -6 -38 -8 -38 -6 -75 -14 -75 -16 0 -1 -10 -3
-23 -6 -26 -5 -124 -45 -132 -54 -3 -3 -17 -11 -32 -17 -32 -14 -46 -26 -131
-108 -56 -55 -142 -168 -135 -179 2 -2 -4 -12 -13 -22 -8 -11 -23 -41 -33 -69
-10 -27 -20 -57 -23 -65 -4 -8 -5 -18 -5 -22 1 -5 -1 -8 -6 -8 -15 0 -23 -259
-10 -335 16 -89 70 -215 132 -305 42 -62 172 -190 192 -190 8 0 14 -4 14 -9 0
-14 118 -68 201 -91 96 -28 275 -35 377 -15 91 18 182 46 182 57 0 4 8 8 19 8
10 0 24 7 31 15 7 8 17 15 22 15 15 0 79 51 133 106 78 80 109 123 153 214 33
69 64 150 57 150 -3 0 1 12 7 28 18 43 18 239 1 313 -8 35 -16 71 -18 79 -2 8
-4 16 -5 18 -2 1 -3 5 -4 10 -4 20 -89 182 -96 182 -5 0 -11 8 -14 18 -6 17
-114 133 -151 162 -39 30 -75 50 -75 43 0 -5 -5 -1 -10 7 -5 8 -13 15 -17 15
-4 1 -21 8 -38 17 -27 14 -93 36 -135 44 -88 18 -127 22 -207 22 -50 0 -94 -2
-95 -4z"/>
<path d="M2365 1638 c-44 -10 -99 -27 -122 -38 -24 -11 -46 -20 -49 -20 -19 0
-137 -90 -190 -145 -101 -105 -186 -262 -212 -390 -9 -48 -9 -281 0 -292 6 -7
8 -13 5 -13 -3 0 -1 -15 4 -32 6 -18 12 -41 15 -50 2 -10 6 -26 8 -35 11 -42
105 -203 119 -203 4 0 7 -5 7 -11 0 -6 15 -26 33 -45 17 -18 37 -39 43 -46 6
-7 23 -22 38 -33 16 -11 35 -26 43 -34 19 -18 148 -81 166 -81 7 0 17 -4 23
-9 5 -6 25 -13 44 -16 19 -3 53 -10 75 -15 22 -5 96 -7 165 -4 152 5 160 6
160 17 0 4 5 5 10 2 6 -3 16 -3 23 2 6 4 21 9 32 10 11 2 44 15 75 29 30 14
56 25 58 24 1 0 28 18 60 42 101 74 202 194 251 298 25 55 62 160 55 160 -3 0
0 10 7 21 16 32 19 228 3 303 -34 165 -112 305 -233 423 -36 35 -68 63 -72 63
-4 0 -14 6 -21 13 -7 6 -26 19 -43 27 -16 8 -32 18 -35 21 -3 4 -14 9 -25 11
-11 1 -23 7 -26 11 -3 4 -32 15 -65 23 -32 8 -68 17 -79 20 -11 3 -76 7 -145
8 -93 2 -145 -2 -205 -16z"/>
</g>
</svg>
